<?xml version="1.0" encoding="UTF-8"?>
<svg xmlns="http://www.w3.org/2000/svg" viewBox="77.00 37.00 109.80 175.80" role="img" aria-label="AWS 3D cloudfront"><g><g transform="translate(0.5,0.5)"><path d="M 80 174.4 L 80 167.2 L 86.1 163.6 L 86.1 57.59 L 116.6 40 L 177.8 75.2 L 177.8 181.21 L 183.8 184.99 L 183.8 191.8 L 152.79 209.8 L 141 209.8 Z" fill="#ececec" stroke="#292929" stroke-width="2" stroke-linejoin="round" stroke-miterlimit="10" /><path d="M 86.1 58 L 147.2 92.99 L 147.2 198.8 L 153.2 209.8 L 141.4 209.8 L 80 174.4 L 80 167.2 L 86.1 163.6 Z" fill-opacity="0.1" fill="#000000" stroke="none" /><path d="M 147.2 92.99 L 177.8 75.2 L 177.8 182 L 183.8 184.99 L 183.8 191.8 L 152.79 209.8 L 147.2 198 Z" fill-opacity="0.3" fill="#000000" stroke="none" /><path d="M 80 174.4 L 85.8 163.8 L 147.2 199 L 141.2 209.8 M 147.4 199 L 177.7 181.49 L 183.8 191.8" fill="none" stroke="#5e5e5e" stroke-linejoin="round" stroke-miterlimit="10" /><path d="M 86.1 58 L 147.2 92.99 L 147.2 198.8 L 153.2 209.8 L 141.4 209.8 L 80 174.4 L 80 167.2 L 86.1 163.6 Z" fill="none" stroke="#5e5e5e" stroke-linejoin="round" stroke-miterlimit="10" /><path d="M 147.2 92.99 L 177.8 75.2 L 177.8 182 L 183.8 184.99 L 183.8 191.8 L 152.79 209.8 L 147.2 198 Z" fill="none" stroke="#5e5e5e" stroke-linejoin="round" stroke-miterlimit="10" /><path d="M 114.6 152.8 C 110.53 150.14 107.06 146.67 104.4 142.59 C 101.5 138.38 99.3 133.72 97.9 128.81 L 105.2 136.4 L 105.19 140.1 L 108.7 141.8 Z M 96.6 123.8 C 95.47 119.42 95.2 114.87 95.8 110.4 C 96.2 105.76 98.31 101.62 101.5 99.19 L 100.89 111.1 L 99.3 110.4 L 99.3 115.8 L 99.79 116.29 Z M 103.2 98.5 C 108.25 96.45 113.64 97.46 118.2 101.3 C 122.39 104.48 125.92 108.45 128.58 113 L 118.2 108.5 L 118.2 106.9 L 113.8 104.51 L 113.8 106 Z M 130.39 116.39 C 133.07 121.08 134.77 126.25 135.4 131.61 C 136.36 136.7 136.33 141.93 135.3 147.01 L 131.4 134.9 L 132.1 135 L 132.1 129.4 L 130.39 128.19 Z M 134.4 149.61 C 133.44 152.47 131.24 154.75 128.4 155.8 C 124.87 156.78 121.1 156.42 117.8 154.8 L 124 150.79 L 127.4 152.8 L 127.4 148.89 Z M 116.4 153.21 L 109.8 140.5 L 122.8 148.09 Z M 106.6 135 L 98.2 126.39 L 101.3 118.01 Z M 102.2 111.81 L 102.8 99.91 L 113.8 108.4 L 103.7 112.2 Z M 103.5 115 L 113.4 110.4 L 114.8 110.99 L 114.8 124.41 L 113.3 123.41 L 113.3 124.31 L 103.5 116.1 Z M 107.99 135.39 L 103.3 118.7 L 104.2 117.9 L 113.8 126.8 L 113.6 128.99 Z M 109.6 137.8 L 109.6 136 L 115.2 129.99 L 116.5 130.79 L 122.9 145.5 Z M 118.2 127.29 L 118.2 126.39 L 116.6 125.39 L 116.6 111.89 L 117.6 112.61 L 127.2 127.91 L 127.3 129.6 Z M 118.1 110.81 L 128.7 114.9 L 129 128.3 Z M 118.2 129.2 L 127.4 131 L 127.4 132.59 L 128.4 132.8 L 125 145.29 L 123.8 144.6 L 118.2 131.51 Z M 129.8 134.8 L 133.8 146.8 L 127.3 147.19 L 127.3 145.9 L 126.4 145.7 Z" fill="#5e5e5e" stroke="none" /><path d="M 80 174.4 L 80 167.2 L 86.1 163.6 L 86.1 57.59 L 116.6 40 L 177.8 75.2 L 177.8 181.21 L 183.8 184.99 L 183.8 191.8 L 152.79 209.8 L 141 209.8 Z" fill="none" stroke="#292929" stroke-width="2" stroke-linejoin="round" stroke-miterlimit="10" /></g></g></svg>
