<?xml version="1.0" encoding="UTF-8"?>
<svg xmlns="http://www.w3.org/2000/svg" viewBox="87.00 77.00 98.00 94.17" role="img" aria-label="AWS 3D elasticLoadBalancing"><g><g transform="translate(0.5,0.5)"><path d="M 90 150.5 L 90 97.5 L 120.5 80 L 151.5 80 L 182 97.5 L 182 150.5 L 151.5 168.17 L 120.5 168.17 Z" fill="#ececec" stroke="#292929" stroke-width="2" stroke-linejoin="round" stroke-miterlimit="10" /><path d="M 90 115.5 L 120.5 133 L 151.5 133 L 151.5 168.17 L 120.5 168.17 L 90 150.5 Z" fill-opacity="0.1" fill="#000000" stroke="none" /><path d="M 151.5 133 L 182 115.5 L 182 150.5 L 151.5 168.17 Z" fill-opacity="0.3" fill="#000000" stroke="none" /><path d="M 90 115.5 L 120.5 133 L 151.5 133 L 151.5 168.17 L 120.5 168.17 L 90 150.5 Z" fill="none" stroke="#5e5e5e" stroke-linejoin="round" stroke-miterlimit="10" /><path d="M 151.5 133 L 182 115.5 L 182 150.5 L 151.5 168.17 Z M 120.5 133 L 120.5 168.17" fill="none" stroke="#5e5e5e" stroke-linejoin="round" stroke-miterlimit="10" /><path d="M 121 92.3 C 125.63 90.87 130.82 90.24 136 90.5 C 141.9 90.78 147.5 92.18 152 94.5 C 159.22 97.59 163.97 102.52 165 108 C 165.71 111.76 163.57 115.5 159 118.5 C 154.91 120.99 150.28 122.46 145.5 122.8 C 140.29 123.38 134.95 123.04 130 121.8 C 124.7 120.78 119.93 118.81 116.2 116.1 C 112.65 113.53 110.17 110.4 109 107 C 107.81 103.56 109.05 100.03 112.5 97 C 114.69 95.06 117.6 93.45 121 92.3" fill="#5e5e5e" stroke="none" /><path d="M 116 112.8 L 123.3 108.5 L 127.3 110.7 L 131 103.4 L 128.5 103.3 L 133.5 98.8 L 130 97 L 137.3 92.7 L 143.7 96.6 L 136.4 100.7 L 134.6 99.6 L 135.7 103.7 L 132.6 103.5 L 129.6 109.5 L 135.5 106 L 133.8 105.2 L 140.7 103.2 L 138.4 101.8 L 145.6 97.6 L 152.2 101.2 L 145 105.5 L 142 103.8 L 138.7 108.2 L 136.8 106.9 L 131.8 109.9 L 141.8 108.4 L 141.5 106.6 L 148.2 107.3 L 146.7 106.4 L 154 102.3 L 160.6 105.9 L 153.2 110.2 L 149.7 108.3 L 142.5 111.2 L 142.2 109.7 L 129.5 111.9 L 132.7 113.8 L 125.5 117.9 Z" fill="#ececec" stroke="none" /><path d="M 90 150.5 L 90 97.5 L 120.5 80 L 151.5 80 L 182 97.5 L 182 150.5 L 151.5 168.17 L 120.5 168.17 Z" fill="none" stroke="#292929" stroke-width="2" stroke-linejoin="round" stroke-miterlimit="10" /></g></g></svg>
